<svg xmlns="http://www.w3.org/2000/svg" viewBox="0 0 261.24 1627.04"><defs><style>.cls-1{fill:none;stroke:blue;stroke-miterlimit:10;}</style></defs><title>Asset 9</title><g id="Layer_2" data-name="Layer 2"><g id="Layer_6" data-name="Layer 6"><path class="cls-1" d="M260.31,1626.49c-30.68-3-56.71-11.74-77.36-26A121.07,121.07,0,0,1,143.85,1556c-15.93-30.73-15.38-59.39-15.35-60.6V931.5c0-40.71-10.93-48.22-11-48.29l-.34-.26c-.8-.77-80.19-77.18-97-93C2.78,773.62.59,751.61.51,750.68V367.5c0-34.26,15.85-46.25,17.75-47.57C20.31,318,49,291.3,67.17,275c18-16.1,15.37-44,15.34-44.31V.5h4V230.4c.22,2.28,2.48,30.46-16.67,47.59-18.77,16.79-48.67,44.69-49,45l-.28.22c-.15.1-16.09,11-16.09,44.32V750.4c.16,1.45,2.66,21.86,18.37,36.65,16.51,15.54,93.34,89.48,96.89,92.9,1.88,1.33,12.73,10.82,12.73,51.56v564c0,.34-.53,29,15,58.85a117.11,117.11,0,0,0,37.83,42.92c20.08,13.82,45.44,22.31,75.39,25.23Z"/></g></g></svg>