<svg xmlns="http://www.w3.org/2000/svg" viewBox="0 0 915 78"><defs><style>.cls-1{fill:none;stroke:#999;stroke-miterlimit:10;}</style></defs><title>Asset 13</title><g id="Layer_2" data-name="Layer 2"><g id="Layer_13" data-name="Layer 13"><path class="cls-1" d="M660.5,77.5c-15.72,0-26.14-14.36-27.38-16.17C632,60,620.64,47.14,594.55,24.78,573.42,6.67,551.7,5.51,543.17,7.42l-.32.07H.5v-6H542.19c3.46-.69,28.9-4.73,56.26,18.72C626.31,44.1,637.33,57,637.79,57.56l.21.27c.09.13,9.33,13.66,22.5,13.66S687.92,52,688.06,51.75l.18-.26.23-.21,33.64-30.67C724.17,17.14,736.45.5,782.5.5h132v6h-132c-24.66,0-38.57,5-45.89,9.11s-9.38,8.14-9.39,8.17l-.25.53L692.75,55.51C690.81,58.15,676.07,77.5,660.5,77.5Z"/></g></g></svg>