<svg xmlns="http://www.w3.org/2000/svg" viewBox="0 0 854.01 1333"><defs><style>.cls-1{fill:none;stroke:#ff6700;stroke-miterlimit:10;}</style></defs><title>Asset 1</title><g id="Layer_2" data-name="Layer 2"><g id="Layer_1-2" data-name="Layer 1"><path class="cls-1" d="M695.61,1332.5H314.51c-13.28,0-16-8.39-16-21,0-16-3.9-21.3-6.22-23a5.82,5.82,0,0,0-4.88-1.1l-.46.15H119.51c-10.05,0-17.62-3-22.5-8.78-7.21-8.61-5.8-20.42-5.5-22.46V919.5c0-15.81-3.37-20.78-5.38-22.34a3.33,3.33,0,0,0-2.76-.79l-.54.22-.32-.09h-60c-6.27,0-11.37-2-15.17-6C.27,883.14.47,871.59.51,870.44V365.5c0-18.12,4.12-30.83,12.24-37.75A21.59,21.59,0,0,1,28.7,322.5H174.51c9,0,16.18-2.71,21.38-8,9.94-10.21,9.63-26.71,9.62-26.88V.5h6v287c0,.7.37,19.14-11.32,31.15-6.37,6.54-15,9.85-25.68,9.85H28.27l-.24,0a15.39,15.39,0,0,0-11.5,3.94c-6.56,5.68-10,17.13-10,33.1V870.63c0,.09-.33,10,5.19,15.77,2.66,2.76,6.19,4.1,10.82,4.1H82.15a9.27,9.27,0,0,1,7.35,1.69c5.31,3.83,8,13,8,27.31v337.27l0,.26c0,.1-1.79,10.79,4.17,17.87,3.69,4.38,9.7,6.61,17.88,6.61H286.1a12,12,0,0,1,9.6,2c5.85,4.21,8.81,13.63,8.81,28,0,12.92,2.95,15,10,15H695.39c1.47-.13,22-2.15,37-17.12,15.94-15.94,99-94.27,103.85-98.86,1.25-1.81,11.27-17.31,11.27-46v-197h6v197c0,32.63-12.09,49.11-12.6,49.8l-.34.38c-.87.83-87.66,82.66-103.94,98.94-17.1,17.1-40,18.81-40.92,18.87Z"/></g></g></svg>