<svg xmlns="http://www.w3.org/2000/svg" viewBox="0 0 706.57 1542.67"><defs><style>.cls-1{fill:none;stroke:#05dd24;stroke-miterlimit:10;}</style></defs><title>Asset 11</title><g id="Layer_2" data-name="Layer 2"><g id="Layer_11" data-name="Layer 11"><path class="cls-1" d="M630.66,1542.17A34.61,34.61,0,0,1,606.47,1532c-1.73-1.65-43.67-41.7-68-67-23.7-24.65-46.62-25.08-46.85-25.08h-462c-8.77,0-15.77-2.79-20.79-8.29-9.29-10.17-8.35-26-8.21-27.83V331.86c0-10,2.63-17.36,7.82-22a20.13,20.13,0,0,1,14.31-5H157.59c25.88,0,51.49-21,53-22.23L501.51.71,505.68,5,214.61,287.08l-.07.06c-1.14,1-28.17,23.72-56.95,23.72H22.44l-.16,0a14.22,14.22,0,0,0-9.92,3.5c-3.83,3.49-5.77,9.38-5.77,17.52V1404.13c0,.14-1.2,14.82,6.67,23.42,3.84,4.19,9.33,6.31,16.34,6.31h462c1,0,25.57.31,51.16,26.92,24.67,25.65,67.48,66.5,67.91,66.91l.1.1c.74.77,18.43,18.64,40.9-.23,24.53-20.61,49.41-49.37,49.66-49.66l4.54,3.92c-.25.29-25.45,29.42-50.34,50.34C646.74,1539.53,638.21,1542.17,630.66,1542.17Z"/></g></g></svg>