<svg xmlns="http://www.w3.org/2000/svg" viewBox="0 0 1014.08 1460"><defs><style>.cls-1{fill:none;stroke:blue;stroke-miterlimit:10;}</style></defs><title>Asset 10</title><g id="Layer_2" data-name="Layer 2"><g id="Layer_8" data-name="Layer 8"><path class="cls-1" d="M713.5,1459.5h-73c-9,0-15.84-2.51-20.37-7.47-6.14-6.72-5.71-15.51-5.63-16.61V1320.5c0-8.19-1.9-14.13-5.66-17.66a12,12,0,0,0-8.22-3.34H200.5c-9.78,0-17.21-2.69-22.08-8-6.41-7-6-16-5.92-17.07V1085.5c0-13.16-3.42-19-6.3-21.55a8.84,8.84,0,0,0-6.46-2.46H91.5A14,14,0,0,1,81,1057.14c-7-7.28-6.49-21.14-6.47-21.72V187.5c0-27.27-9.08-34.31-9.17-34.38l-.21-.17c-.42-.4-41.65-39.65-53-51C.12,89.95.48,68.37.51,67.45V.5h4v67c0,.25-.33,20.84,10.41,31.59C26,110.2,65.75,148,67.8,150c1.37,1.07,10.7,9.4,10.7,37.52v848c0,.21-.44,12.84,5.36,18.88a10,10,0,0,0,7.64,3.12h67.9a13,13,0,0,1,9.35,3.36c5.14,4.5,7.75,12.79,7.75,24.64v189.17c0,.08-.6,8.18,4.91,14.15,4.08,4.43,10.51,6.68,19.1,6.68h400a16.1,16.1,0,0,1,11.13,4.42c4.59,4.31,6.92,11.23,6.92,20.58v115.18c0,.07-.62,8,4.62,13.68,3.74,4.07,9.59,6.14,17.39,6.14h73c.29,0,29.61-.47,60.56-32.39,31.66-32.65,234.52-224.3,236.56-226.23l2.75,2.91c-2,1.93-204.83,193.51-236.44,226.11C744.72,1459.12,714.76,1459.5,713.5,1459.5Z"/></g></g></svg>