<svg xmlns="http://www.w3.org/2000/svg" viewBox="0 0 1018.33 427.47"><defs><style>.cls-1{fill:none;stroke:#702c91;stroke-miterlimit:10;}</style></defs><title>Asset 12</title><g id="Layer_2" data-name="Layer 2"><g id="Layer_12" data-name="Layer 12"><path class="cls-1" d="M1.55,427,.55,389c-.1-1.24-.64-11,5.54-17.77,3.86-4.25,9.4-6.4,16.45-6.4H586.44c1.64-.14,13.11-1.68,13.11-17V166.06a18.81,18.81,0,0,1,4.3-13.86c4.72-5.52,12.7-8.32,23.7-8.32h206c.4,0,31,.77,44.88-13.12,14.85-14.85,133.84-128.89,135-130L1017.63,5c-1.2,1.15-120.15,115.15-135,130-15.74,15.74-47.86,14.92-49.21,14.88H627.55c-9.12,0-15.54,2.07-19.08,6.15a12.61,12.61,0,0,0-2.95,9.4l0,.45v182c0,21.57-18.62,23-18.81,23H22.55c-5.3,0-9.34,1.49-12,4.43-4.64,5.1-4,13.2-4,13.28v.21l1,38Z"/></g></g></svg>