<?xml version="1.0" encoding="utf-8"?>
<!-- Generator: Adobe Illustrator 21.1.0, SVG Export Plug-In . SVG Version: 6.00 Build 0)  -->
<svg version="1.1" id="Layer_1" xmlns="http://www.w3.org/2000/svg" xmlns:xlink="http://www.w3.org/1999/xlink" x="0px" y="0px"
	 viewBox="0 0 1080 1920" style="enable-background:new 0 0 1080 1920;" xml:space="preserve">
<style type="text/css">
	.st0{fill:none;stroke:#FFFF00;stroke-miterlimit:10;}
</style>
<path class="st0" d="M799.8,1392.3c-2-1.9-193.2-188.2-213.9-204.9c-16.6-13.5-38.5-14.5-44.8-14.5c-1.6,0-2.4,0.1-2.4,0.1l-0.1,0
	l-263,0c-12.7,0-21.7-3.3-26.7-9.7c-5.5-7.1-4.1-15.4-3.8-17.1V909.5c0-26.3-6.3-31.5-6.7-31.8l0,0l-0.3-0.2l-0.1-0.1
	c-2.2-2.1-55-51.9-94-87c-39.2-35.2-39-54.4-38.8-57l0-113.9c0-9.4,2.8-16.7,8.3-21.7c6.7-6,15.3-6.9,19.9-6.9
	c1.3,0,2.1,0.1,2.4,0.1l387.8,0c3.8,0,7.1-1.4,9.7-4.1c8.8-9.3,7.9-31.1,7.8-31.3l0-188.1h5v187.9c0.1,1.6,1,24.1-9.2,34.9
	c-3.6,3.8-8,5.7-13.3,5.7H135.4l-0.1,0c-0.1,0-0.8-0.1-1.9-0.1c-3.2,0-11.1,0.5-16.7,5.6c-4.4,4-6.7,10-6.7,18v114.1l0,0.1
	c0,0.2-0.8,18.8,37.2,53c37.7,33.9,87.6,80.9,93.9,86.9c2.4,1.5,9,8.3,9,36v237.3l-0.1,0.2c0,0.1-1.7,7.5,2.8,13.2
	c4,5.1,11.7,7.7,22.8,7.7h262.9c0.3,0,1.2-0.1,2.7-0.1c8.6,0,30.6,1.5,48,15.6c20.9,17,212.2,203.3,214.2,205.2l171.9,160.8
	l-3.4,3.7L799.8,1392.3z"/>
</svg>
